<?xml version="1.0" encoding="UTF-8" standalone="no"?>
<!DOCTYPE svg PUBLIC "-//W3C//DTD SVG 1.1//EN" "http://www.w3.org/Graphics/SVG/1.1/DTD/svg11.dtd">
<svg version="1.1" xmlns="http://www.w3.org/2000/svg" xmlns:xlink="http://www.w3.org/1999/xlink" preserveAspectRatio="xMidYMid meet" viewBox="0 0 640 640" width="640" height="640"><defs><path d="M426.72 186.13C431.79 186.13 435.9 190.24 435.9 195.3C435.9 227.2 435.9 313.73 435.9 345.62C435.9 350.69 431.79 354.8 426.72 354.8C410.61 354.8 371.44 354.8 355.33 354.8C350.27 354.8 346.16 350.69 346.16 345.62C346.16 313.73 346.16 227.2 346.16 195.3C346.16 190.24 350.27 186.13 355.33 186.13C371.44 186.13 410.61 186.13 426.72 186.13Z" id="eamyORO6v"></path><path d="M510 203.33C520.3 203.33 528.65 211.68 528.65 221.99C528.65 247.32 528.65 304.67 528.65 330.01C528.65 340.31 520.3 348.66 510 348.66C477.23 348.66 397.58 348.66 364.81 348.66C354.51 348.66 346.16 340.31 346.16 330.01C346.16 304.67 346.16 247.32 346.16 221.99C346.16 211.68 354.51 203.33 364.81 203.33C397.58 203.33 477.23 203.33 510 203.33Z" id="a53lElaZ"></path><path d="M364.3 224.44L510.51 224.44L510.51 358.8L364.3 358.8L364.3 224.44Z" id="agNMZqd74"></path><path d="M513.22 232.62C524.06 232.62 532.85 241.41 532.85 252.25C532.85 274.77 532.85 322.7 532.85 345.21C532.85 356.05 524.06 364.84 513.22 364.84C478.75 364.84 394.95 364.84 360.47 364.84C349.63 364.84 340.85 356.05 340.85 345.21C340.85 322.7 340.85 274.77 340.85 252.25C340.85 241.41 349.63 232.62 360.47 232.62C394.95 232.62 478.75 232.62 513.22 232.62Z" id="bPd3PkkuG"></path><path d="M509.98 243.77C520.85 243.77 529.65 252.58 529.65 263.44C529.65 286.38 529.65 335.52 529.65 358.46C529.65 369.32 520.85 378.13 509.98 378.13C476.82 378.13 396.99 378.13 363.83 378.13C352.96 378.13 344.16 369.32 344.16 358.46C344.16 335.52 344.16 286.38 344.16 263.44C344.16 252.58 352.96 243.77 363.83 243.77C396.99 243.77 476.82 243.77 509.98 243.77Z" id="b5m2l73yJ"></path><path d="M362.3 263.75L510.51 263.75L510.51 358.15L362.3 358.15L362.3 263.75Z" id="bfrLzN17n"></path><path d="M446.41 268.42L446.46 268.43L446.51 268.44L446.56 268.45L446.61 268.46L446.66 268.47L446.71 268.49L446.76 268.51L446.81 268.52L446.85 268.55L446.9 268.57L446.94 268.59L446.99 268.62L447.03 268.65L447.07 268.68L447.11 268.71L447.15 268.74L447.18 268.78L447.22 268.81L447.25 268.85L447.29 268.89L447.32 268.93L447.35 268.97L447.38 269.01L447.41 269.05L447.43 269.1L447.46 269.14L447.48 269.19L447.5 269.24L447.52 269.28L447.53 269.33L447.55 269.38L447.56 269.44L447.57 269.49L447.58 269.54L447.59 269.59L447.6 269.65L447.6 269.7L447.6 269.76L447.6 296.5L473.61 296.5L473.66 296.51L473.72 296.51L473.77 296.51L473.82 296.52L473.87 296.53L473.92 296.54L473.97 296.56L474.02 296.57L474.07 296.59L474.11 296.61L474.16 296.63L474.21 296.65L474.25 296.68L474.29 296.71L474.34 296.73L474.38 296.76L474.42 296.79L474.45 296.83L474.49 296.86L474.53 296.9L474.56 296.93L474.6 296.97L474.63 297.01L474.66 297.05L474.69 297.09L474.71 297.14L474.74 297.18L474.76 297.23L474.79 297.27L474.81 297.32L474.83 297.37L474.84 297.42L474.86 297.47L474.87 297.52L474.88 297.57L474.89 297.63L474.9 297.68L474.9 297.73L474.91 297.79L474.91 297.84L474.91 319.24L474.91 319.3L474.9 319.35L474.9 319.4L474.89 319.46L474.88 319.51L474.87 319.56L474.86 319.61L474.84 319.66L474.83 319.71L474.81 319.76L474.79 319.81L474.76 319.86L474.74 319.9L474.71 319.95L474.69 319.99L474.66 320.03L474.63 320.07L474.6 320.11L474.56 320.15L474.53 320.19L474.49 320.22L474.45 320.26L474.42 320.29L474.38 320.32L474.34 320.35L474.29 320.38L474.25 320.4L474.21 320.43L474.16 320.45L474.11 320.47L474.07 320.49L474.02 320.51L473.97 320.53L473.92 320.54L473.87 320.55L473.82 320.56L473.77 320.57L473.72 320.57L473.66 320.58L473.61 320.58L447.6 320.58L447.6 347.33L447.6 347.38L447.6 347.44L447.59 347.49L447.58 347.54L447.57 347.6L447.56 347.65L447.55 347.7L447.53 347.75L447.52 347.8L447.5 347.85L447.48 347.89L447.46 347.94L447.43 347.99L447.41 348.03L447.38 348.07L447.35 348.12L447.32 348.16L447.29 348.2L447.25 348.23L447.22 348.27L447.18 348.31L447.15 348.34L447.11 348.37L447.07 348.41L447.03 348.44L446.99 348.46L446.94 348.49L446.9 348.51L446.85 348.54L446.81 348.56L446.76 348.58L446.71 348.6L446.66 348.61L446.61 348.62L446.56 348.64L446.51 348.65L446.46 348.65L446.41 348.66L446.35 348.66L446.3 348.66L425.49 348.66L425.44 348.66L425.39 348.66L425.34 348.65L425.28 348.65L425.23 348.64L425.18 348.62L425.13 348.61L425.08 348.6L425.04 348.58L424.99 348.56L424.94 348.54L424.9 348.51L424.85 348.49L424.81 348.46L424.77 348.44L424.73 348.41L424.69 348.37L424.65 348.34L424.61 348.31L424.57 348.27L424.54 348.23L424.51 348.2L424.48 348.16L424.44 348.12L424.42 348.07L424.39 348.03L424.36 347.99L424.34 347.94L424.32 347.89L424.3 347.85L424.28 347.8L424.26 347.75L424.24 347.7L424.23 347.65L424.22 347.6L424.21 347.54L424.2 347.49L424.2 347.44L424.19 347.38L424.19 347.33L424.19 320.58L398.19 320.58L398.13 320.58L398.08 320.57L398.03 320.57L397.98 320.56L397.92 320.55L397.87 320.54L397.82 320.53L397.78 320.51L397.73 320.49L397.68 320.47L397.63 320.45L397.59 320.43L397.54 320.4L397.5 320.38L397.46 320.35L397.42 320.32L397.38 320.29L397.34 320.26L397.3 320.22L397.27 320.19L397.23 320.15L397.2 320.11L397.17 320.07L397.14 320.03L397.11 319.99L397.08 319.95L397.05 319.9L397.03 319.86L397.01 319.81L396.99 319.76L396.97 319.71L396.95 319.66L396.94 319.61L396.92 319.56L396.91 319.51L396.9 319.46L396.9 319.4L396.89 319.35L396.89 319.3L396.89 319.24L396.89 297.84L396.89 297.79L396.89 297.73L396.9 297.68L396.9 297.63L396.91 297.57L396.92 297.52L396.94 297.47L396.95 297.42L396.97 297.37L396.99 297.32L397.01 297.27L397.03 297.23L397.05 297.18L397.08 297.14L397.11 297.09L397.14 297.05L397.17 297.01L397.2 296.97L397.23 296.93L397.27 296.9L397.3 296.86L397.34 296.83L397.38 296.79L397.42 296.76L397.46 296.73L397.5 296.71L397.54 296.68L397.59 296.65L397.63 296.63L397.68 296.61L397.73 296.59L397.78 296.57L397.82 296.56L397.87 296.54L397.92 296.53L397.98 296.52L398.03 296.51L398.08 296.51L398.13 296.51L398.19 296.5L424.19 296.5L424.19 269.76L424.19 269.7L424.2 269.65L424.2 269.59L424.21 269.54L424.22 269.49L424.23 269.44L424.24 269.38L424.26 269.33L424.28 269.28L424.3 269.24L424.32 269.19L424.34 269.14L424.36 269.1L424.39 269.05L424.42 269.01L424.44 268.97L424.48 268.93L424.51 268.89L424.54 268.85L424.57 268.81L424.61 268.78L424.65 268.74L424.69 268.71L424.73 268.68L424.77 268.65L424.81 268.62L424.85 268.59L424.9 268.57L424.94 268.55L424.99 268.52L425.04 268.51L425.08 268.49L425.13 268.47L425.18 268.46L425.23 268.45L425.28 268.44L425.34 268.43L425.39 268.42L425.44 268.42L425.49 268.42L446.3 268.42L446.35 268.42L446.41 268.42Z" id="aAPygIqEQ"></path></defs><g><g><g><use xlink:href="#eamyORO6v" opacity="1" fill="#1da3e9" fill-opacity="1"></use><g><use xlink:href="#eamyORO6v" opacity="1" fill-opacity="0" stroke="#1da3e9" stroke-width="8" stroke-opacity="1"></use></g></g><g><use xlink:href="#a53lElaZ" opacity="1" fill="#1da3e9" fill-opacity="1"></use><g><use xlink:href="#a53lElaZ" opacity="1" fill-opacity="0" stroke="#1ea1e7" stroke-width="8" stroke-opacity="1"></use></g></g><g><use xlink:href="#agNMZqd74" opacity="1" fill="#ffffff" fill-opacity="0.98"></use><g><use xlink:href="#agNMZqd74" opacity="1" fill-opacity="0" stroke="#fefefe" stroke-width="8" stroke-opacity="1"></use></g></g><g><use xlink:href="#bPd3PkkuG" opacity="1" fill="#fbfbfc" fill-opacity="1"></use></g><g><use xlink:href="#b5m2l73yJ" opacity="1" fill="#5f656b" fill-opacity="1"></use><g><use xlink:href="#b5m2l73yJ" opacity="1" fill-opacity="0" stroke="#5f656b" stroke-width="8" stroke-opacity="1"></use></g></g><g><use xlink:href="#bfrLzN17n" opacity="1" fill="#ffffff" fill-opacity="0.98"></use><g><use xlink:href="#bfrLzN17n" opacity="1" fill-opacity="0" stroke="#fefefe" stroke-width="8" stroke-opacity="1"></use></g></g><g><use xlink:href="#aAPygIqEQ" opacity="1" fill="#209fe2" fill-opacity="1"></use></g></g></g></svg>