<?xml version="1.0" standalone="no"?>
<!DOCTYPE svg PUBLIC "-//W3C//DTD SVG 20010904//EN"
 "http://www.w3.org/TR/2001/REC-SVG-20010904/DTD/svg10.dtd">
<svg version="1.0" xmlns="http://www.w3.org/2000/svg"
 width="700.000000pt" height="700.000000pt" viewBox="0 0 700.000000 700.000000"
 preserveAspectRatio="xMidYMid meet">
<metadata>
Created by potrace 1.11, written by Peter Selinger 2001-2013
</metadata>
<g transform="translate(0.000000,700.000000) scale(0.100000,-0.100000)"
fill="#000000" stroke="none">
<path d="M531 6984 c-73 -20 -143 -59 -201 -113 -59 -56 -93 -110 -121 -193
-22 -63 -22 -66 -24 -983 0 -507 -5 -926 -9 -933 -4 -7 -9 -20 -11 -29 -2 -10
-8 -37 -13 -61 -6 -23 -11 -109 -11 -189 -1 -81 -4 -149 -6 -152 -1 -3 -6 -31
-11 -61 -10 -74 -11 -3457 -1 -3540 9 -81 41 -187 75 -260 112 -234 344 -410
602 -459 37 -7 917 -10 2700 -10 2561 0 2648 1 2733 19 333 72 582 333 645
675 10 55 9 3538 -1 3599 -4 27 -11 54 -14 59 -3 5 -7 307 -9 671 -2 363 -6
672 -8 686 -28 173 -92 308 -206 433 -99 107 -229 186 -377 229 l-78 23 -1287
0 c-709 0 -1288 2 -1289 5 0 3 -2 55 -3 115 -5 156 -36 240 -125 337 -56 62
-148 115 -231 135 -86 20 -2643 18 -2719 -3z"/>
</g>
</svg>
