<?xml version="1.0" encoding="UTF-8" standalone="no"?>
<!DOCTYPE svg PUBLIC "-//W3C//DTD SVG 1.1//EN" "http://www.w3.org/Graphics/SVG/1.1/DTD/svg11.dtd">
<svg version="1.1" xmlns="http://www.w3.org/2000/svg" xmlns:xlink="http://www.w3.org/1999/xlink" preserveAspectRatio="xMidYMid meet" viewBox="-4.000000000000028 0.42021677207260666 199.99999999999997 200.00000000000006" width="192" height="192"><defs><path d="M85.88 4.42C90.94 4.42 95.05 8.53 95.05 13.59C95.05 45.49 95.05 132.01 95.05 163.91C95.05 168.98 90.94 173.09 85.88 173.09C69.76 173.09 30.6 173.09 14.48 173.09C9.42 173.09 5.31 168.98 5.31 163.91C5.31 132.01 5.31 45.49 5.31 13.59C5.31 8.53 9.42 4.42 14.48 4.42C30.6 4.42 69.76 4.42 85.88 4.42Z" id="awwJKUAkc"></path><path d="M169.15 21.62C179.45 21.62 187.81 29.97 187.81 40.28C187.81 65.61 187.81 122.96 187.81 148.3C187.81 158.6 179.45 166.95 169.15 166.95C136.38 166.95 56.73 166.95 23.97 166.95C13.66 166.95 5.31 158.6 5.31 148.3C5.31 122.96 5.31 65.61 5.31 40.28C5.31 29.97 13.66 21.62 23.97 21.62C56.73 21.62 136.38 21.62 169.15 21.62Z" id="a3G4opkd5"></path><path d="M23.45 42.73L169.66 42.73L169.66 177.09L23.45 177.09L23.45 42.73Z" id="h34mGLdONa"></path><path d="M172.37 50.91C183.21 50.91 192 59.7 192 70.54C192 93.05 192 140.99 192 163.5C192 174.34 183.21 183.13 172.37 183.13C137.9 183.13 54.1 183.13 19.63 183.13C8.79 183.13 0 174.34 0 163.5C0 140.99 0 93.05 0 70.54C0 59.7 8.79 50.91 19.63 50.91C54.1 50.91 137.9 50.91 172.37 50.91Z" id="c13u7LdITU"></path><path d="M169.14 62.06C180 62.06 188.81 70.87 188.81 81.73C188.81 104.67 188.81 153.81 188.81 176.75C188.81 187.61 180 196.42 169.14 196.42C135.97 196.42 56.15 196.42 22.98 196.42C12.12 196.42 3.31 187.61 3.31 176.75C3.31 153.81 3.31 104.67 3.31 81.73C3.31 70.87 12.12 62.06 22.98 62.06C56.15 62.06 135.97 62.06 169.14 62.06Z" id="e36QVi75B"></path><path d="M21.45 82.04L169.66 82.04L169.66 176.44L21.45 176.44L21.45 82.04Z" id="a37aINwl07"></path><path d="M105.56 86.71L105.61 86.72L105.66 86.73L105.71 86.74L105.76 86.75L105.81 86.76L105.86 86.78L105.91 86.79L105.96 86.81L106 86.84L106.05 86.86L106.09 86.88L106.14 86.91L106.18 86.94L106.22 86.97L106.26 87L106.3 87.03L106.34 87.07L106.37 87.1L106.41 87.14L106.44 87.18L106.47 87.22L106.5 87.26L106.53 87.3L106.56 87.34L106.58 87.39L106.61 87.43L106.63 87.48L106.65 87.53L106.67 87.57L106.69 87.62L106.7 87.67L106.72 87.73L106.73 87.78L106.74 87.83L106.74 87.88L106.75 87.94L106.75 87.99L106.75 88.05L106.75 114.79L132.76 114.79L132.81 114.8L132.87 114.8L132.92 114.8L132.97 114.81L133.02 114.82L133.07 114.83L133.12 114.85L133.17 114.86L133.22 114.88L133.27 114.9L133.31 114.92L133.36 114.94L133.4 114.97L133.45 115L133.49 115.02L133.53 115.05L133.57 115.08L133.61 115.12L133.64 115.15L133.68 115.19L133.71 115.22L133.75 115.26L133.78 115.3L133.81 115.34L133.84 115.38L133.87 115.43L133.89 115.47L133.92 115.52L133.94 115.56L133.96 115.61L133.98 115.66L133.99 115.71L134.01 115.76L134.02 115.81L134.03 115.86L134.04 115.92L134.05 115.97L134.06 116.02L134.06 116.08L134.06 116.13L134.06 137.53L134.06 137.59L134.06 137.64L134.05 137.69L134.04 137.75L134.03 137.8L134.02 137.85L134.01 137.9L133.99 137.95L133.98 138L133.96 138.05L133.94 138.1L133.92 138.14L133.89 138.19L133.87 138.23L133.84 138.28L133.81 138.32L133.78 138.36L133.75 138.4L133.71 138.44L133.68 138.48L133.64 138.51L133.61 138.55L133.57 138.58L133.53 138.61L133.49 138.64L133.45 138.67L133.4 138.69L133.36 138.72L133.31 138.74L133.27 138.76L133.22 138.78L133.17 138.8L133.12 138.82L133.07 138.83L133.02 138.84L132.97 138.85L132.92 138.86L132.87 138.86L132.81 138.87L132.76 138.87L106.75 138.87L106.75 165.62L106.75 165.67L106.75 165.73L106.74 165.78L106.74 165.83L106.73 165.89L106.72 165.94L106.7 165.99L106.69 166.04L106.67 166.09L106.65 166.14L106.63 166.18L106.61 166.23L106.58 166.28L106.56 166.32L106.53 166.36L106.5 166.41L106.47 166.45L106.44 166.49L106.41 166.52L106.37 166.56L106.34 166.6L106.3 166.63L106.26 166.66L106.22 166.7L106.18 166.73L106.14 166.75L106.09 166.78L106.05 166.8L106 166.83L105.96 166.85L105.91 166.87L105.86 166.89L105.81 166.9L105.76 166.91L105.71 166.93L105.66 166.94L105.61 166.94L105.56 166.95L105.51 166.95L105.45 166.95L84.65 166.95L84.59 166.95L84.54 166.95L84.49 166.94L84.44 166.94L84.38 166.93L84.33 166.91L84.28 166.9L84.24 166.89L84.19 166.87L84.14 166.85L84.09 166.83L84.05 166.8L84 166.78L83.96 166.75L83.92 166.73L83.88 166.7L83.84 166.66L83.8 166.63L83.76 166.6L83.73 166.56L83.69 166.52L83.66 166.49L83.63 166.45L83.6 166.41L83.57 166.36L83.54 166.32L83.52 166.28L83.49 166.23L83.47 166.18L83.45 166.14L83.43 166.09L83.41 166.04L83.4 165.99L83.38 165.94L83.37 165.89L83.36 165.83L83.36 165.78L83.35 165.73L83.35 165.67L83.35 165.62L83.35 138.87L57.34 138.87L57.28 138.87L57.23 138.86L57.18 138.86L57.13 138.85L57.08 138.84L57.03 138.83L56.98 138.82L56.93 138.8L56.88 138.78L56.83 138.76L56.79 138.74L56.74 138.72L56.7 138.69L56.65 138.67L56.61 138.64L56.57 138.61L56.53 138.58L56.49 138.55L56.45 138.51L56.42 138.48L56.38 138.44L56.35 138.4L56.32 138.36L56.29 138.32L56.26 138.28L56.23 138.23L56.21 138.19L56.18 138.14L56.16 138.1L56.14 138.05L56.12 138L56.1 137.95L56.09 137.9L56.08 137.85L56.06 137.8L56.05 137.75L56.05 137.69L56.04 137.64L56.04 137.59L56.04 137.53L56.04 116.13L56.04 116.08L56.04 116.02L56.05 115.97L56.05 115.92L56.06 115.86L56.08 115.81L56.09 115.76L56.1 115.71L56.12 115.66L56.14 115.61L56.16 115.56L56.18 115.52L56.21 115.47L56.23 115.43L56.26 115.38L56.29 115.34L56.32 115.3L56.35 115.26L56.38 115.22L56.42 115.19L56.45 115.15L56.49 115.12L56.53 115.08L56.57 115.05L56.61 115.02L56.65 115L56.7 114.97L56.74 114.94L56.79 114.92L56.83 114.9L56.88 114.88L56.93 114.86L56.98 114.85L57.03 114.83L57.08 114.82L57.13 114.81L57.18 114.8L57.23 114.8L57.28 114.8L57.34 114.79L83.35 114.79L83.35 88.05L83.35 87.99L83.35 87.94L83.36 87.88L83.36 87.83L83.37 87.78L83.38 87.73L83.4 87.67L83.41 87.62L83.43 87.57L83.45 87.53L83.47 87.48L83.49 87.43L83.52 87.39L83.54 87.34L83.57 87.3L83.6 87.26L83.63 87.22L83.66 87.18L83.69 87.14L83.73 87.1L83.76 87.07L83.8 87.03L83.84 87L83.88 86.97L83.92 86.94L83.96 86.91L84 86.88L84.05 86.86L84.09 86.84L84.14 86.81L84.19 86.79L84.24 86.78L84.28 86.76L84.33 86.75L84.38 86.74L84.44 86.73L84.49 86.72L84.54 86.71L84.59 86.71L84.65 86.71L105.45 86.71L105.51 86.71L105.56 86.71Z" id="bnpB13nHC"></path></defs><g><g><use xlink:href="#awwJKUAkc" opacity="1" fill="#1da3e9" fill-opacity="1"></use><g><use xlink:href="#awwJKUAkc" opacity="1" fill-opacity="0" stroke="#1da3e9" stroke-width="8" stroke-opacity="1"></use></g></g><g><use xlink:href="#a3G4opkd5" opacity="1" fill="#1da3e9" fill-opacity="1"></use><g><use xlink:href="#a3G4opkd5" opacity="1" fill-opacity="0" stroke="#1ea1e7" stroke-width="8" stroke-opacity="1"></use></g></g><g><use xlink:href="#h34mGLdONa" opacity="1" fill="#ffffff" fill-opacity="0.98"></use><g><use xlink:href="#h34mGLdONa" opacity="1" fill-opacity="0" stroke="#fefefe" stroke-width="8" stroke-opacity="1"></use></g></g><g><use xlink:href="#c13u7LdITU" opacity="1" fill="#fbfbfc" fill-opacity="1"></use></g><g><use xlink:href="#e36QVi75B" opacity="1" fill="#5f656b" fill-opacity="1"></use><g><use xlink:href="#e36QVi75B" opacity="1" fill-opacity="0" stroke="#5f656b" stroke-width="8" stroke-opacity="1"></use></g></g><g><use xlink:href="#a37aINwl07" opacity="1" fill="#ffffff" fill-opacity="0.98"></use><g><use xlink:href="#a37aINwl07" opacity="1" fill-opacity="0" stroke="#fefefe" stroke-width="8" stroke-opacity="1"></use></g></g><g><use xlink:href="#bnpB13nHC" opacity="1" fill="#209fe2" fill-opacity="1"></use></g></g></svg>